<svg xmlns="http://www.w3.org/2000/svg" width="1200" height="400" fill="none" viewBox="0 0 1200 400"><defs><linearGradient id="bg" x1="0" x2="1200" y1="0" y2="400" gradientUnits="userSpaceOnUse"><stop stop-color="#07111F"/><stop offset=".48" stop-color="#0B2538"/><stop offset="1" stop-color="#0D3A3C"/></linearGradient><linearGradient id="accent" x1="204" x2="694" y1="98" y2="320" gradientUnits="userSpaceOnUse"><stop stop-color="#6BF3D7"/><stop offset=".48" stop-color="#77B7FF"/><stop offset="1" stop-color="#F2D479"/></linearGradient><linearGradient id="cardA" x1="751" x2="912" y1="69" y2="232" gradientUnits="userSpaceOnUse"><stop stop-color="#F5FBFF"/><stop offset="1" stop-color="#D9ECF6"/></linearGradient><linearGradient id="cardB" x1="903" x2="1078" y1="110" y2="301" gradientUnits="userSpaceOnUse"><stop stop-color="#FFF3D3"/><stop offset="1" stop-color="#FFDDA5"/></linearGradient><linearGradient id="cardC" x1="787" x2="965" y1="219" y2="351" gradientUnits="userSpaceOnUse"><stop stop-color="#E4F8E7"/><stop offset="1" stop-color="#B9E7D2"/></linearGradient><pattern id="grid" width="36" height="36" patternUnits="userSpaceOnUse"><path stroke="#B9D4EA" stroke-opacity=".08" d="M36 0H0V36"/></pattern><filter id="softShadow" width="140%" height="150%" x="-20%" y="-20%" color-interpolation-filters="sRGB"><feDropShadow dx="0" dy="18" flood-color="#010713" flood-opacity=".28" stdDeviation="18"/></filter><filter id="smallShadow" width="140%" height="150%" x="-20%" y="-20%" color-interpolation-filters="sRGB"><feDropShadow dx="0" dy="10" flood-color="#04101B" flood-opacity=".2" stdDeviation="10"/></filter><clipPath id="clipCardA"><rect width="174" height="220" x="728" y="70" rx="24"/></clipPath><clipPath id="clipCardB"><rect width="184" height="214" x="878" y="110" rx="24"/></clipPath><clipPath id="clipCardC"><rect width="178" height="104" x="770" y="228" rx="22"/></clipPath></defs><rect width="1200" height="400" fill="url(#bg)" rx="32"/><rect width="1200" height="400" fill="url(#grid)" rx="32"/><path stroke="#7DEDD6" stroke-opacity=".18" stroke-width="2" d="M58 312C226 248 360 259 514 318C654 372 820 368 1058 282"/><path stroke="#9BBFFF" stroke-opacity=".16" stroke-width="2" d="M94 88C248 126 392 121 540 74C698 24 887 44 1108 138"/><path stroke="#FFF" stroke-opacity=".08" d="M72 356H1128"/><g filter="url(#softShadow)"><rect width="650" height="288" x="76" y="56" fill="#0A1B2D" fill-opacity=".88" stroke="#FFF" stroke-opacity=".1" rx="30"/><path stroke="#FFF" stroke-opacity=".07" d="M78 110H724"/></g><g><rect width="186" height="34" x="112" y="86" fill="#102A42" stroke="#68E8D0" stroke-opacity=".42" rx="17"/><text x="132" y="108" fill="#B8FFF1" font-family="'SF Pro Display','PingFang SC','Microsoft YaHei',sans-serif" font-size="14" font-weight="800" letter-spacing="1.6">PROMPT AS CODE</text></g><text x="112" y="171" fill="#F7FBFF" font-family="'SF Pro Display','PingFang SC','Microsoft YaHei',sans-serif" font-size="50" font-weight="850">GPT-Image2</text><text x="112" y="218" fill="#69EED8" font-family="'SF Pro Display','PingFang SC','Microsoft YaHei',sans-serif" font-size="32" font-weight="760">工业级提示词引擎与模板库</text><text x="112" y="255" fill="#BFD2E5" font-family="'SF Pro Text','PingFang SC','Microsoft YaHei',sans-serif" font-size="18" font-weight="500">把社区案例逆向成可复用协议，让图像生成从灵感走向系统工程。</text><g filter="url(#smallShadow)"><rect width="154" height="42" x="112" y="286" fill="#F7FBFF" rx="14"/><text x="132" y="313" fill="#0B2538" font-family="'SF Pro Display','PingFang SC','Microsoft YaHei',sans-serif" font-size="19" font-weight="850">370+ 案例</text></g><g filter="url(#smallShadow)"><rect width="160" height="42" x="278" y="286" fill="#0E3246" stroke="#73EBD5" stroke-opacity=".42" rx="14"/><text x="300" y="313" fill="#E9FFFA" font-family="'SF Pro Display','PingFang SC','Microsoft YaHei',sans-serif" font-size="19" font-weight="800">20+ 模板</text></g><g filter="url(#smallShadow)"><rect width="188" height="42" x="450" y="286" fill="#122B3F" stroke="#9DBFFF" stroke-opacity=".34" rx="14"/><text x="472" y="313" fill="#EAF3FF" font-family="'SF Pro Display','PingFang SC','Microsoft YaHei',sans-serif" font-size="18" font-weight="760">Schema 驱动</text></g><g filter="url(#softShadow)"><rect width="174" height="220" x="728" y="70" fill="url(#cardA)" rx="24"/><g clip-path="url(#clipCardA)"><rect width="174" height="54" x="728" y="70" fill="#102A42"/><text x="750" y="104" fill="#DDF7FF" font-family="'SF Pro Text','PingFang SC','Microsoft YaHei',sans-serif" font-size="16" font-weight="760">Case Gallery</text><rect width="130" height="20" x="750" y="146" fill="#BDE4F4" rx="10"/><rect width="94" height="12" x="750" y="180" fill="#8EBED4" rx="6"/><rect width="118" height="12" x="750" y="202" fill="#8EBED4" rx="6"/><rect width="84" height="12" x="750" y="224" fill="#8EBED4" rx="6"/><path stroke="#0F7C88" stroke-linecap="round" stroke-opacity=".42" stroke-width="6" d="M856 261C824 250 798 253 764 270"/><circle cx="864" cy="154" r="18" fill="#F2D479"/></g></g><g filter="url(#softShadow)"><rect width="184" height="214" x="878" y="110" fill="url(#cardB)" rx="24"/><g clip-path="url(#clipCardB)"><rect width="136" height="88" x="902" y="136" fill="#0B2538" rx="18"/><path fill="#7EE8D2" d="M924 193L952 164L976 188L994 171L1020 203H924Z"/><circle cx="1006" cy="154" r="10" fill="#FFD86B"/><text x="902" y="252" fill="#17283A" font-family="'SF Pro Display','PingFang SC','Microsoft YaHei',sans-serif" font-size="18" font-weight="850">Visual Output</text><rect width="120" height="10" x="902" y="270" fill="#C58D49" fill-opacity=".42" rx="5"/><rect width="94" height="10" x="902" y="290" fill="#C58D49" fill-opacity=".42" rx="5"/></g></g><g filter="url(#softShadow)"><rect width="178" height="104" x="770" y="228" fill="url(#cardC)" rx="22"/><g clip-path="url(#clipCardC)"><text x="792" y="258" fill="#123527" font-family="'IBM Plex Mono','SFMono-Regular',monospace" font-size="14" font-weight="800">{ prompt }</text><rect width="116" height="8" x="792" y="276" fill="#2D9C83" fill-opacity=".5" rx="4"/><rect width="82" height="8" x="792" y="294" fill="#2D9C83" fill-opacity=".36" rx="4"/><rect width="130" height="8" x="792" y="312" fill="#2D9C83" fill-opacity=".28" rx="4"/></g></g><g><path stroke="#75EBD5" stroke-linecap="round" stroke-width="3" d="M720 202C742 190 744 178 750 156"/><path stroke="#F2D479" stroke-linecap="round" stroke-width="3" d="M720 202C742 218 754 246 772 280"/><path stroke="#9DBFFF" stroke-linecap="round" stroke-width="3" d="M720 202C772 202 826 202 878 216"/><circle cx="720" cy="202" r="8" fill="#F7FBFF"/><circle cx="750" cy="156" r="6" fill="#75EBD5"/><circle cx="772" cy="280" r="6" fill="#F2D479"/><circle cx="878" cy="216" r="6" fill="#9DBFFF"/></g><g opacity=".72"><rect width="88" height="18" x="1000" y="342" fill="#17334A" rx="9"/><rect width="58" height="18" x="1000" y="342" fill="#75EBD5" rx="9"/><text x="730" y="360" fill="#86A5BD" font-family="'IBM Plex Mono','SFMono-Regular',monospace" font-size="12">cases.reverse_engineered → reusable_templates</text></g></svg>